<svg xmlns="http://www.w3.org/2000/svg" viewBox="0 0 384 512" fill="#d49a1e">
  <path d="M153.6 29.9l16-21.3C173.6 3.2 180 0 186.7 0C198.4 0 208 9.6 208 21.3V43.5c0 13.1 5.4 25.7 15.1 34.7L288 140c51.8 51.8 80 122.1 80 195.4C368 433.8 288.6 512 192 512S16 433.8 16 335.4c0-73.3 28.2-143.6 80-195.4l64.9-61.8c9.7-9.1 15.1-21.6 15.1-34.7V29.9zM321.5 256L222.7 161.4C216.7 155.6 208 152 199 152c-15.3 0-27 13.6-24.6 28.7l14.2 88.5c1.6 9.8-5.7 18.7-15.6 18.7h-33c-11.4 0-19.9-10.7-17.1-21.8l20.4-81.5c2.1-8.5-4-16.6-12.8-16.6c-4.4 0-8.6 2-11.5 5.5l-84.1 100.9C21.7 296.8 16 315.6 16 335.4C16 433.8 95.4 512 192 512s176-78.2 176-176.6c0-29.3-7.2-57.8-20.5-83.3h-26z"/>
</svg>
